<svg width="600" height="200" viewBox="0 0 600 200" fill="none" xmlns="http://www.w3.org/2000/svg">
<g clip-path="url(#clip0_2002_4)">
<rect width="600" height="200" fill="#090B10"/>
<path d="M122.9 127V73.75H156.35V80.05H126.125L129.35 76.75V101.2L126.125 97.9H155V104.05H126.125L129.35 100.75V127H122.9ZM164.773 127V87.25H171.073V127H164.773ZM164.623 81.025V73.675H171.223V81.025H164.623ZM183.816 127V87.25H189.591L189.816 97.375L189.066 96.7C189.566 94.35 190.441 92.425 191.691 90.925C192.941 89.375 194.441 88.225 196.191 87.475C197.991 86.725 199.916 86.35 201.966 86.35C205.016 86.35 207.516 87.025 209.466 88.375C211.466 89.725 212.941 91.55 213.891 93.85C214.891 96.1 215.391 98.625 215.391 101.425V127H209.091V103.225C209.091 100.775 208.791 98.725 208.191 97.075C207.641 95.375 206.741 94.1 205.491 93.25C204.241 92.35 202.616 91.9 200.616 91.9C197.566 91.9 195.041 92.875 193.041 94.825C191.091 96.725 190.116 99.525 190.116 103.225V127H183.816ZM242.042 127.9C238.342 127.9 235.117 127.05 232.367 125.35C229.667 123.65 227.567 121.25 226.067 118.15C224.567 115 223.817 111.325 223.817 107.125C223.817 102.925 224.567 99.275 226.067 96.175C227.567 93.075 229.667 90.675 232.367 88.975C235.117 87.225 238.342 86.35 242.042 86.35C245.092 86.35 247.792 86.9 250.142 88C252.542 89.05 254.492 90.6 255.992 92.65C257.492 94.7 258.467 97.2 258.917 100.15L252.317 100.6C251.867 97.95 250.717 95.925 248.867 94.525C247.017 93.075 244.742 92.35 242.042 92.35C238.392 92.35 235.542 93.675 233.492 96.325C231.442 98.925 230.417 102.525 230.417 107.125C230.417 111.725 231.442 115.35 233.492 118C235.542 120.6 238.392 121.9 242.042 121.9C244.742 121.9 247.017 121.15 248.867 119.65C250.717 118.15 251.867 115.9 252.317 112.9L258.917 113.35C258.467 116.3 257.492 118.875 255.992 121.075C254.492 123.225 252.542 124.9 250.142 126.1C247.792 127.3 245.092 127.9 242.042 127.9ZM266.727 127V73.75H273.027V108.625L292.377 87.25H300.777L285.102 104.125L301.452 127H293.802L280.827 108.4L273.027 116.65V127H266.727ZM322.754 127.9C319.004 127.9 315.754 127.05 313.004 125.35C310.304 123.65 308.204 121.25 306.704 118.15C305.254 115 304.529 111.325 304.529 107.125C304.529 102.925 305.254 99.275 306.704 96.175C308.204 93.075 310.279 90.675 312.929 88.975C315.629 87.225 318.804 86.35 322.454 86.35C325.904 86.35 328.954 87.175 331.604 88.825C334.254 90.425 336.304 92.775 337.754 95.875C339.254 98.975 340.004 102.75 340.004 107.2V109.075H311.129C311.379 113.325 312.504 116.525 314.504 118.675C316.554 120.825 319.304 121.9 322.754 121.9C325.354 121.9 327.479 121.3 329.129 120.1C330.829 118.85 332.004 117.225 332.654 115.225L339.404 115.75C338.354 119.3 336.354 122.225 333.404 124.525C330.504 126.775 326.954 127.9 322.754 127.9ZM311.129 103.525H333.104C332.804 99.675 331.679 96.85 329.729 95.05C327.829 93.25 325.404 92.35 322.454 92.35C319.404 92.35 316.879 93.3 314.879 95.2C312.929 97.05 311.679 99.825 311.129 103.525ZM346.571 127V118.525H355.046V127H346.571ZM378.458 127.9C375.008 127.9 372.008 127.05 369.458 125.35C366.958 123.65 365.033 121.25 363.683 118.15C362.333 115.05 361.658 111.375 361.658 107.125C361.658 102.875 362.333 99.2 363.683 96.1C365.033 93 366.958 90.6 369.458 88.9C372.008 87.2 375.008 86.35 378.458 86.35C381.108 86.35 383.533 86.925 385.733 88.075C387.933 89.175 389.583 90.75 390.683 92.8V73.75H396.983V127H391.283L391.058 121C389.958 123.15 388.283 124.85 386.033 126.1C383.783 127.3 381.258 127.9 378.458 127.9ZM379.733 121.9C382.083 121.9 384.058 121.3 385.658 120.1C387.308 118.9 388.558 117.2 389.408 115C390.258 112.75 390.683 110.125 390.683 107.125C390.683 104.025 390.258 101.375 389.408 99.175C388.558 96.975 387.308 95.3 385.658 94.15C384.058 92.95 382.083 92.35 379.733 92.35C376.233 92.35 373.433 93.675 371.333 96.325C369.283 98.925 368.258 102.525 368.258 107.125C368.258 111.675 369.283 115.275 371.333 117.925C373.433 120.575 376.233 121.9 379.733 121.9ZM423.755 127.9C420.005 127.9 416.755 127.05 414.005 125.35C411.305 123.65 409.205 121.25 407.705 118.15C406.255 115 405.53 111.325 405.53 107.125C405.53 102.925 406.255 99.275 407.705 96.175C409.205 93.075 411.28 90.675 413.93 88.975C416.63 87.225 419.805 86.35 423.455 86.35C426.905 86.35 429.955 87.175 432.605 88.825C435.255 90.425 437.305 92.775 438.755 95.875C440.255 98.975 441.005 102.75 441.005 107.2V109.075H412.13C412.38 113.325 413.505 116.525 415.505 118.675C417.555 120.825 420.305 121.9 423.755 121.9C426.355 121.9 428.48 121.3 430.13 120.1C431.83 118.85 433.005 117.225 433.655 115.225L440.405 115.75C439.355 119.3 437.355 122.225 434.405 124.525C431.505 126.775 427.955 127.9 423.755 127.9ZM412.13 103.525H434.105C433.805 99.675 432.68 96.85 430.73 95.05C428.83 93.25 426.405 92.35 423.455 92.35C420.405 92.35 417.88 93.3 415.88 95.2C413.93 97.05 412.68 99.825 412.13 103.525ZM458.492 127L444.017 87.25H450.917L462.467 120.55L474.017 87.25H480.917L466.442 127H458.492Z" fill="#EEFFFF"/>
<path d="M235.491 164.263C116.522 164.263 73.0941 103 0 103V200H118.357H236.715H504.931H734V174.474C678.033 174.474 552.946 138.737 489.333 138.737C441.929 138.737 318.372 164.263 235.491 164.263Z" fill="#292D3E"/>
<path d="M235.492 164.263C116.523 164.263 73.0942 103 0 103V128.526C48.9333 128.526 129.368 189.789 235.492 189.789C341.616 189.789 443.153 164.263 489.333 164.263C552.947 164.263 678.033 200 734 200V174.474C678.033 174.474 552.947 138.737 489.333 138.737C441.929 138.737 318.373 164.263 235.492 164.263Z" fill="url(#paint0_linear_2002_4)"/>
</g>
<defs>
<linearGradient id="paint0_linear_2002_4" x1="367.777" y1="103.008" x2="363.449" y2="312.25" gradientUnits="userSpaceOnUse">
<stop offset="0.297576" stop-color="#80CBC4"/>
<stop offset="0.803275" stop-color="#FFCC00" stop-opacity="0.15"/>
</linearGradient>
<clipPath id="clip0_2002_4">
<rect width="600" height="200" fill="white"/>
</clipPath>
</defs>
</svg>
